<?xml version="1.0" encoding="UTF-8" standalone="no"?>
<!DOCTYPE svg PUBLIC "-//W3C//DTD SVG 1.1//EN"
 "http://www.w3.org/Graphics/SVG/1.1/DTD/svg11.dtd">
<!-- Generated by graphviz version 14.1.2 (20260126.1125)
 -->
<!-- Pages: 1 -->
<svg width="521pt" height="98pt"
 viewBox="0.00 0.00 521.00 98.00" xmlns="http://www.w3.org/2000/svg" xmlns:xlink="http://www.w3.org/1999/xlink">
<g id="graph0" class="graph" transform="scale(1 1) rotate(0) translate(4 94)">
<!-- mpileaks -->
<g id="node1" class="node">
<title>mpileaks</title>
<polygon fill="none" stroke="black" points="61,-67 0,-67 0,-31 61,-31 61,-67"/>
<text xml:space="preserve" text-anchor="middle" x="30.5" y="-45.88" font-family="monaco" font-size="10.00">mpileaks</text>
</g>
<!-- mpi -->
<g id="node2" class="node">
<title>mpi</title>
<polygon fill="none" stroke="black" points="305,-90 251,-90 251,-54 305,-54 305,-90"/>
<text xml:space="preserve" text-anchor="middle" x="278" y="-68.88" font-family="monaco" font-size="10.00">mpi</text>
</g>
<!-- mpileaks&#45;&gt;mpi -->
<g id="edge1" class="edge">
<title>mpileaks&#45;&gt;mpi</title>
<path fill="none" stroke="black" d="M61.11,-51.77C105.77,-55.96 190.31,-63.88 239.3,-68.47"/>
<polygon fill="black" stroke="black" points="238.86,-71.94 249.14,-69.39 239.51,-64.97 238.86,-71.94"/>
</g>
<!-- callpath@1.0+debug -->
<g id="node3" class="node">
<title>callpath@1.0+debug</title>
<polygon fill="none" stroke="black" points="215,-44 97,-44 97,-8 215,-8 215,-44"/>
<text xml:space="preserve" text-anchor="middle" x="156" y="-22.88" font-family="monaco" font-size="10.00">callpath@1.0+debug</text>
</g>
<!-- mpileaks&#45;&gt;callpath@1.0+debug -->
<g id="edge2" class="edge">
<title>mpileaks&#45;&gt;callpath@1.0+debug</title>
<path fill="none" stroke="black" d="M61.4,-43.43C68.84,-42.05 77.14,-40.5 85.63,-38.92"/>
<polygon fill="black" stroke="black" points="86.17,-42.38 95.36,-37.11 84.89,-35.5 86.17,-42.38"/>
</g>
<!-- callpath@1.0+debug&#45;&gt;mpi -->
<g id="edge3" class="edge">
<title>callpath@1.0+debug&#45;&gt;mpi</title>
<path fill="none" stroke="black" d="M205.12,-44.44C216.76,-48.91 229.02,-53.61 240.05,-57.84"/>
<polygon fill="black" stroke="black" points="238.6,-61.03 249.19,-61.34 241.11,-54.49 238.6,-61.03"/>
</g>
<!-- dyninst -->
<g id="node4" class="node">
<title>dyninst</title>
<polygon fill="none" stroke="black" points="305,-36 251,-36 251,0 305,0 305,-36"/>
<text xml:space="preserve" text-anchor="middle" x="278" y="-14.88" font-family="monaco" font-size="10.00">dyninst</text>
</g>
<!-- callpath@1.0+debug&#45;&gt;dyninst -->
<g id="edge4" class="edge">
<title>callpath@1.0+debug&#45;&gt;dyninst</title>
<path fill="none" stroke="black" d="M215.24,-22.12C223.39,-21.57 231.59,-21.03 239.22,-20.52"/>
<polygon fill="black" stroke="black" points="239.42,-24.01 249.16,-19.86 238.95,-17.03 239.42,-24.01"/>
</g>
<!-- libdwarf -->
<g id="node5" class="node">
<title>libdwarf</title>
<polygon fill="none" stroke="black" points="396.75,-59 341,-59 341,-23 396.75,-23 396.75,-59"/>
<text xml:space="preserve" text-anchor="middle" x="368.88" y="-37.88" font-family="monaco" font-size="10.00">libdwarf</text>
</g>
<!-- dyninst&#45;&gt;libdwarf -->
<g id="edge5" class="edge">
<title>dyninst&#45;&gt;libdwarf</title>
<path fill="none" stroke="black" d="M305.18,-24.78C312.86,-26.76 321.41,-28.98 329.67,-31.11"/>
<polygon fill="black" stroke="black" points="328.62,-34.46 339.18,-33.57 330.37,-27.68 328.62,-34.46"/>
</g>
<!-- libelf@0.8.11 -->
<g id="node6" class="node">
<title>libelf@0.8.11</title>
<polygon fill="none" stroke="black" points="513.25,-36 432.75,-36 432.75,0 513.25,0 513.25,-36"/>
<text xml:space="preserve" text-anchor="middle" x="473" y="-14.88" font-family="monaco" font-size="10.00">libelf@0.8.11</text>
</g>
<!-- dyninst&#45;&gt;libelf@0.8.11 -->
<g id="edge7" class="edge">
<title>dyninst&#45;&gt;libelf@0.8.11</title>
<path fill="none" stroke="black" d="M305.23,-15.93C316.26,-15.16 329.25,-14.38 341,-14 365.76,-13.2 371.98,-13.34 396.75,-14 404.66,-14.21 413.04,-14.54 421.21,-14.93"/>
<polygon fill="black" stroke="black" points="420.89,-18.42 431.06,-15.43 421.25,-11.43 420.89,-18.42"/>
</g>
<!-- libdwarf&#45;&gt;libelf@0.8.11 -->
<g id="edge6" class="edge">
<title>libdwarf&#45;&gt;libelf@0.8.11</title>
<path fill="none" stroke="black" d="M397.24,-34.84C404.64,-33.17 412.88,-31.31 421.12,-29.46"/>
<polygon fill="black" stroke="black" points="421.8,-32.89 430.79,-27.28 420.27,-26.06 421.8,-32.89"/>
</g>
</g>
</svg>
