<?xml version="1.0" encoding="UTF-8" standalone="no"?>
<!DOCTYPE svg PUBLIC "-//W3C//DTD SVG 1.1//EN"
 "http://www.w3.org/Graphics/SVG/1.1/DTD/svg11.dtd">
<!-- Generated by graphviz version 14.1.2 (20260126.1125)
 -->
<!-- Pages: 1 -->
<svg width="625pt" height="166pt"
 viewBox="0.00 0.00 625.00 166.00" xmlns="http://www.w3.org/2000/svg" xmlns:xlink="http://www.w3.org/1999/xlink">
<g id="graph0" class="graph" transform="scale(1 1) rotate(0) translate(4 162.35)">
<!-- mpi -->
<g id="node1" class="node">
<title>mpi</title>
<path fill="lightblue" stroke="red" stroke-width="2" d="M344.18,-158.35C344.18,-158.35 291.82,-158.35 291.82,-158.35 285.82,-158.35 279.82,-152.35 279.82,-146.35 279.82,-146.35 279.82,-100 279.82,-100 279.82,-94 285.82,-88 291.82,-88 291.82,-88 344.18,-88 344.18,-88 350.18,-88 356.18,-94 356.18,-100 356.18,-100 356.18,-146.35 356.18,-146.35 356.18,-152.35 350.18,-158.35 344.18,-158.35"/>
<text xml:space="preserve" text-anchor="middle" x="318" y="-120.05" font-family="monaco" font-size="10.00">mpi</text>
</g>
<!-- mpileaks -->
<g id="node2" class="node">
<title>mpileaks</title>
<path fill="lightblue" stroke="black" stroke-width="2" d="M90.6,-126.35C90.6,-126.35 12,-126.35 12,-126.35 6,-126.35 0,-120.35 0,-114.35 0,-114.35 0,-68 0,-68 0,-62 6,-56 12,-56 12,-56 90.6,-56 90.6,-56 96.6,-56 102.6,-62 102.6,-68 102.6,-68 102.6,-114.35 102.6,-114.35 102.6,-120.35 96.6,-126.35 90.6,-126.35"/>
<text xml:space="preserve" text-anchor="middle" x="51.3" y="-88.05" font-family="monaco" font-size="10.00">mpileaks</text>
</g>
<!-- mpileaks&#45;&gt;mpi -->
<g id="edge1" class="edge">
<title>mpileaks&#45;&gt;mpi</title>
<path fill="none" stroke="black" d="M103.36,-99.24C114.93,-100.97 127.18,-102.71 138.6,-104.17 182.23,-109.78 232.01,-114.98 267.88,-118.52"/>
<polygon fill="black" stroke="black" points="267.21,-121.97 277.5,-119.46 267.89,-115.01 267.21,-121.97"/>
</g>
<!-- callpath -->
<g id="node3" class="node">
<title>callpath</title>
<path fill="lightblue" stroke="black" stroke-width="2" d="M223.2,-95.35C223.2,-95.35 150.6,-95.35 150.6,-95.35 144.6,-95.35 138.6,-89.35 138.6,-83.35 138.6,-83.35 138.6,-37 138.6,-37 138.6,-31 144.6,-25 150.6,-25 150.6,-25 223.2,-25 223.2,-25 229.2,-25 235.2,-31 235.2,-37 235.2,-37 235.2,-83.35 235.2,-83.35 235.2,-89.35 229.2,-95.35 223.2,-95.35"/>
<text xml:space="preserve" text-anchor="middle" x="186.9" y="-57.05" font-family="monaco" font-size="10.00">callpath</text>
</g>
<!-- mpileaks&#45;&gt;callpath -->
<g id="edge2" class="edge">
<title>mpileaks&#45;&gt;callpath</title>
<path fill="none" stroke="black" d="M103.57,-79.28C111.09,-77.53 118.88,-75.73 126.54,-73.95"/>
<polygon fill="black" stroke="black" points="127.2,-77.39 136.15,-71.72 125.61,-70.57 127.2,-77.39"/>
</g>
<!-- callpath&#45;&gt;mpi -->
<g id="edge3" class="edge">
<title>callpath&#45;&gt;mpi</title>
<path fill="none" stroke="black" d="M235.97,-83.63C246.73,-88.88 258.14,-94.45 268.9,-99.7"/>
<polygon fill="black" stroke="black" points="267.09,-102.71 277.61,-103.95 270.16,-96.42 267.09,-102.71"/>
</g>
<!-- dyninst -->
<g id="node4" class="node">
<title>dyninst</title>
<path fill="lightblue" stroke="black" stroke-width="2" d="M352.8,-70.35C352.8,-70.35 283.2,-70.35 283.2,-70.35 277.2,-70.35 271.2,-64.35 271.2,-58.35 271.2,-58.35 271.2,-12 271.2,-12 271.2,-6 277.2,0 283.2,0 283.2,0 352.8,0 352.8,0 358.8,0 364.8,-6 364.8,-12 364.8,-12 364.8,-58.35 364.8,-58.35 364.8,-64.35 358.8,-70.35 352.8,-70.35"/>
<text xml:space="preserve" text-anchor="middle" x="318" y="-32.05" font-family="monaco" font-size="10.00">dyninst</text>
</g>
<!-- callpath&#45;&gt;dyninst -->
<g id="edge4" class="edge">
<title>callpath&#45;&gt;dyninst</title>
<path fill="none" stroke="black" d="M235.97,-50.87C243.58,-49.39 251.52,-47.86 259.32,-46.34"/>
<polygon fill="black" stroke="black" points="259.96,-49.78 269.12,-44.45 258.63,-42.91 259.96,-49.78"/>
</g>
<!-- libdwarf -->
<g id="node5" class="node">
<title>libdwarf</title>
<path fill="lightblue" stroke="black" stroke-width="2" d="M486.15,-102.35C486.15,-102.35 412.8,-102.35 412.8,-102.35 406.8,-102.35 400.8,-96.35 400.8,-90.35 400.8,-90.35 400.8,-44 400.8,-44 400.8,-38 406.8,-32 412.8,-32 412.8,-32 486.15,-32 486.15,-32 492.15,-32 498.15,-38 498.15,-44 498.15,-44 498.15,-90.35 498.15,-90.35 498.15,-96.35 492.15,-102.35 486.15,-102.35"/>
<text xml:space="preserve" text-anchor="middle" x="449.48" y="-64.05" font-family="monaco" font-size="10.00">libdwarf</text>
</g>
<!-- dyninst&#45;&gt;libdwarf -->
<g id="edge5" class="edge">
<title>dyninst&#45;&gt;libdwarf</title>
<path fill="none" stroke="black" d="M365.74,-46.73C373.33,-48.6 381.26,-50.56 389.1,-52.5"/>
<polygon fill="black" stroke="black" points="388.04,-55.84 398.59,-54.85 389.72,-49.05 388.04,-55.84"/>
</g>
<!-- libelf -->
<g id="node6" class="node">
<title>libelf</title>
<path fill="lightblue" stroke="black" stroke-width="2" d="M604.5,-70.35C604.5,-70.35 546.15,-70.35 546.15,-70.35 540.15,-70.35 534.15,-64.35 534.15,-58.35 534.15,-58.35 534.15,-12 534.15,-12 534.15,-6 540.15,0 546.15,0 546.15,0 604.5,0 604.5,0 610.5,0 616.5,-6 616.5,-12 616.5,-12 616.5,-58.35 616.5,-58.35 616.5,-64.35 610.5,-70.35 604.5,-70.35"/>
<text xml:space="preserve" text-anchor="middle" x="575.33" y="-32.05" font-family="monaco" font-size="10.00">libelf</text>
</g>
<!-- dyninst&#45;&gt;libelf -->
<g id="edge7" class="edge">
<title>dyninst&#45;&gt;libelf</title>
<path fill="none" stroke="black" d="M365.59,-27.14C377.06,-25.5 389.35,-24.01 400.8,-23.17 443.95,-20.03 455.02,-19.8 498.15,-23.17 505.95,-23.79 514.16,-24.74 522.19,-25.86"/>
<polygon fill="black" stroke="black" points="521.45,-29.29 531.85,-27.29 522.48,-22.36 521.45,-29.29"/>
</g>
<!-- libdwarf&#45;&gt;libelf -->
<g id="edge6" class="edge">
<title>libdwarf&#45;&gt;libelf</title>
<path fill="none" stroke="black" d="M499.07,-54.62C506.72,-52.64 514.65,-50.59 522.37,-48.6"/>
<polygon fill="black" stroke="black" points="523.21,-52 532.01,-46.11 521.45,-45.22 523.21,-52"/>
</g>
</g>
</svg>
