<?xml version="1.0" encoding="UTF-8" standalone="no"?>
<!DOCTYPE svg PUBLIC "-//W3C//DTD SVG 1.1//EN"
 "http://www.w3.org/Graphics/SVG/1.1/DTD/svg11.dtd">
<!-- Generated by graphviz version 14.1.2 (20260126.1125)
 -->
<!-- Pages: 1 -->
<svg width="922pt" height="118pt"
 viewBox="0.00 0.00 922.00 118.00" xmlns="http://www.w3.org/2000/svg" xmlns:xlink="http://www.w3.org/1999/xlink">
<g id="graph0" class="graph" transform="scale(1 1) rotate(0) translate(4 114.25)">
<!-- mpileaks@2.3\n%gcc@4.7.3\n arch=linux&#45;debian7&#45;x86_64 -->
<g id="node1" class="node">
<title>mpileaks@2.3\n%gcc@4.7.3\n arch=linux&#45;debian7&#45;x86_64</title>
<polygon fill="none" stroke="black" points="154,-84.25 0,-84.25 0,-38 154,-38 154,-84.25"/>
<text xml:space="preserve" text-anchor="middle" x="77" y="-70.75" font-family="monaco" font-size="10.00">mpileaks@2.3</text>
<text xml:space="preserve" text-anchor="middle" x="77" y="-58" font-family="monaco" font-size="10.00">%gcc@4.7.3</text>
<text xml:space="preserve" text-anchor="middle" x="77" y="-45.25" font-family="monaco" font-size="10.00"> arch=linux&#45;debian7&#45;x86_64</text>
</g>
<!-- mpich@3.0.4\n%gcc@4.7.3\n arch=linux&#45;debian7&#45;x86_64 -->
<g id="node2" class="node">
<title>mpich@3.0.4\n%gcc@4.7.3\n arch=linux&#45;debian7&#45;x86_64</title>
<polygon fill="none" stroke="black" points="534,-110.25 380,-110.25 380,-64 534,-64 534,-110.25"/>
<text xml:space="preserve" text-anchor="middle" x="457" y="-96.75" font-family="monaco" font-size="10.00">mpich@3.0.4</text>
<text xml:space="preserve" text-anchor="middle" x="457" y="-84" font-family="monaco" font-size="10.00">%gcc@4.7.3</text>
<text xml:space="preserve" text-anchor="middle" x="457" y="-71.25" font-family="monaco" font-size="10.00"> arch=linux&#45;debian7&#45;x86_64</text>
</g>
<!-- mpileaks@2.3\n%gcc@4.7.3\n arch=linux&#45;debian7&#45;x86_64&#45;&gt;mpich@3.0.4\n%gcc@4.7.3\n arch=linux&#45;debian7&#45;x86_64 -->
<g id="edge1" class="edge">
<title>mpileaks@2.3\n%gcc@4.7.3\n arch=linux&#45;debian7&#45;x86_64&#45;&gt;mpich@3.0.4\n%gcc@4.7.3\n arch=linux&#45;debian7&#45;x86_64</title>
<path fill="none" stroke="black" d="M154.49,-66.39C216.36,-70.64 303.51,-76.64 368.22,-81.09"/>
<polygon fill="black" stroke="black" points="367.89,-84.57 378.11,-81.77 368.37,-77.59 367.89,-84.57"/>
</g>
<!-- callpath@1.0\n%gcc@4.7.3+debug\n arch=linux&#45;debian7&#45;x86_64 -->
<g id="node3" class="node">
<title>callpath@1.0\n%gcc@4.7.3+debug\n arch=linux&#45;debian7&#45;x86_64</title>
<polygon fill="none" stroke="black" points="344,-59.25 190,-59.25 190,-13 344,-13 344,-59.25"/>
<text xml:space="preserve" text-anchor="middle" x="267" y="-45.75" font-family="monaco" font-size="10.00">callpath@1.0</text>
<text xml:space="preserve" text-anchor="middle" x="267" y="-33" font-family="monaco" font-size="10.00">%gcc@4.7.3+debug</text>
<text xml:space="preserve" text-anchor="middle" x="267" y="-20.25" font-family="monaco" font-size="10.00"> arch=linux&#45;debian7&#45;x86_64</text>
</g>
<!-- mpileaks@2.3\n%gcc@4.7.3\n arch=linux&#45;debian7&#45;x86_64&#45;&gt;callpath@1.0\n%gcc@4.7.3+debug\n arch=linux&#45;debian7&#45;x86_64 -->
<g id="edge2" class="edge">
<title>mpileaks@2.3\n%gcc@4.7.3\n arch=linux&#45;debian7&#45;x86_64&#45;&gt;callpath@1.0\n%gcc@4.7.3+debug\n arch=linux&#45;debian7&#45;x86_64</title>
<path fill="none" stroke="black" d="M154.47,-50.96C162.34,-49.91 170.39,-48.84 178.38,-47.78"/>
<polygon fill="black" stroke="black" points="178.65,-51.27 188.1,-46.48 177.73,-44.33 178.65,-51.27"/>
</g>
<!-- callpath@1.0\n%gcc@4.7.3+debug\n arch=linux&#45;debian7&#45;x86_64&#45;&gt;mpich@3.0.4\n%gcc@4.7.3\n arch=linux&#45;debian7&#45;x86_64 -->
<g id="edge3" class="edge">
<title>callpath@1.0\n%gcc@4.7.3+debug\n arch=linux&#45;debian7&#45;x86_64&#45;&gt;mpich@3.0.4\n%gcc@4.7.3\n arch=linux&#45;debian7&#45;x86_64</title>
<path fill="none" stroke="black" d="M344.47,-56.87C352.43,-59.03 360.58,-61.24 368.65,-63.43"/>
<polygon fill="black" stroke="black" points="367.57,-66.76 378.14,-66 369.41,-60.01 367.57,-66.76"/>
</g>
<!-- dyninst@8.1.2\n%gcc@4.7.3\n arch=linux&#45;debian7&#45;x86_64 -->
<g id="node4" class="node">
<title>dyninst@8.1.2\n%gcc@4.7.3\n arch=linux&#45;debian7&#45;x86_64</title>
<polygon fill="none" stroke="black" points="534,-46.25 380,-46.25 380,0 534,0 534,-46.25"/>
<text xml:space="preserve" text-anchor="middle" x="457" y="-32.75" font-family="monaco" font-size="10.00">dyninst@8.1.2</text>
<text xml:space="preserve" text-anchor="middle" x="457" y="-20" font-family="monaco" font-size="10.00">%gcc@4.7.3</text>
<text xml:space="preserve" text-anchor="middle" x="457" y="-7.25" font-family="monaco" font-size="10.00"> arch=linux&#45;debian7&#45;x86_64</text>
</g>
<!-- callpath@1.0\n%gcc@4.7.3+debug\n arch=linux&#45;debian7&#45;x86_64&#45;&gt;dyninst@8.1.2\n%gcc@4.7.3\n arch=linux&#45;debian7&#45;x86_64 -->
<g id="edge4" class="edge">
<title>callpath@1.0\n%gcc@4.7.3+debug\n arch=linux&#45;debian7&#45;x86_64&#45;&gt;dyninst@8.1.2\n%gcc@4.7.3\n arch=linux&#45;debian7&#45;x86_64</title>
<path fill="none" stroke="black" d="M344.47,-30.84C352.34,-30.29 360.39,-29.74 368.38,-29.18"/>
<polygon fill="black" stroke="black" points="368.36,-32.69 378.09,-28.51 367.87,-25.71 368.36,-32.69"/>
</g>
<!-- libdwarf@20130729\n%gcc@4.7.3\n arch=linux&#45;debian7&#45;x86_64 -->
<g id="node5" class="node">
<title>libdwarf@20130729\n%gcc@4.7.3\n arch=linux&#45;debian7&#45;x86_64</title>
<polygon fill="none" stroke="black" points="724,-72.25 570,-72.25 570,-26 724,-26 724,-72.25"/>
<text xml:space="preserve" text-anchor="middle" x="647" y="-58.75" font-family="monaco" font-size="10.00">libdwarf@20130729</text>
<text xml:space="preserve" text-anchor="middle" x="647" y="-46" font-family="monaco" font-size="10.00">%gcc@4.7.3</text>
<text xml:space="preserve" text-anchor="middle" x="647" y="-33.25" font-family="monaco" font-size="10.00"> arch=linux&#45;debian7&#45;x86_64</text>
</g>
<!-- dyninst@8.1.2\n%gcc@4.7.3\n arch=linux&#45;debian7&#45;x86_64&#45;&gt;libdwarf@20130729\n%gcc@4.7.3\n arch=linux&#45;debian7&#45;x86_64 -->
<g id="edge5" class="edge">
<title>dyninst@8.1.2\n%gcc@4.7.3\n arch=linux&#45;debian7&#45;x86_64&#45;&gt;libdwarf@20130729\n%gcc@4.7.3\n arch=linux&#45;debian7&#45;x86_64</title>
<path fill="none" stroke="black" d="M534.47,-33.7C542.34,-34.79 550.39,-35.9 558.38,-37.01"/>
<polygon fill="black" stroke="black" points="557.72,-40.45 568.1,-38.35 558.68,-33.51 557.72,-40.45"/>
</g>
<!-- libelf@0.8.11\n%gcc@4.7.3\n arch=linux&#45;debian7&#45;x86_64 -->
<g id="node6" class="node">
<title>libelf@0.8.11\n%gcc@4.7.3\n arch=linux&#45;debian7&#45;x86_64</title>
<polygon fill="none" stroke="black" points="914,-46.25 760,-46.25 760,0 914,0 914,-46.25"/>
<text xml:space="preserve" text-anchor="middle" x="837" y="-32.75" font-family="monaco" font-size="10.00">libelf@0.8.11</text>
<text xml:space="preserve" text-anchor="middle" x="837" y="-20" font-family="monaco" font-size="10.00">%gcc@4.7.3</text>
<text xml:space="preserve" text-anchor="middle" x="837" y="-7.25" font-family="monaco" font-size="10.00"> arch=linux&#45;debian7&#45;x86_64</text>
</g>
<!-- dyninst@8.1.2\n%gcc@4.7.3\n arch=linux&#45;debian7&#45;x86_64&#45;&gt;libelf@0.8.11\n%gcc@4.7.3\n arch=linux&#45;debian7&#45;x86_64 -->
<g id="edge7" class="edge">
<title>dyninst@8.1.2\n%gcc@4.7.3\n arch=linux&#45;debian7&#45;x86_64&#45;&gt;libelf@0.8.11\n%gcc@4.7.3\n arch=linux&#45;debian7&#45;x86_64</title>
<path fill="none" stroke="black" d="M534.49,-18.48C546.38,-17.92 558.52,-17.43 570,-17.12 638.42,-15.29 655.58,-15.29 724,-17.12 731.81,-17.33 739.91,-17.62 748.04,-17.97"/>
<polygon fill="black" stroke="black" points="747.85,-21.46 758,-18.41 748.16,-14.47 747.85,-21.46"/>
</g>
<!-- libdwarf@20130729\n%gcc@4.7.3\n arch=linux&#45;debian7&#45;x86_64&#45;&gt;libelf@0.8.11\n%gcc@4.7.3\n arch=linux&#45;debian7&#45;x86_64 -->
<g id="edge6" class="edge">
<title>libdwarf@20130729\n%gcc@4.7.3\n arch=linux&#45;debian7&#45;x86_64&#45;&gt;libelf@0.8.11\n%gcc@4.7.3\n arch=linux&#45;debian7&#45;x86_64</title>
<path fill="none" stroke="black" d="M724.47,-38.55C732.34,-37.46 740.39,-36.35 748.38,-35.24"/>
<polygon fill="black" stroke="black" points="748.68,-38.74 758.1,-33.9 747.72,-31.8 748.68,-38.74"/>
</g>
</g>
</svg>
