<?xml version="1.0" encoding="UTF-8" standalone="no"?>
<!DOCTYPE svg PUBLIC "-//W3C//DTD SVG 1.1//EN"
 "http://www.w3.org/Graphics/SVG/1.1/DTD/svg11.dtd">
<!-- Generated by graphviz version 14.1.2 (20260126.1125)
 -->
<!-- Pages: 1 -->
<svg width="432pt" height="98pt"
 viewBox="0.00 0.00 432.00 98.00" xmlns="http://www.w3.org/2000/svg" xmlns:xlink="http://www.w3.org/1999/xlink">
<g id="graph0" class="graph" transform="scale(1 1) rotate(0) translate(4 94)">
<!-- mpi -->
<g id="node1" class="node">
<title>mpi</title>
<polygon fill="none" stroke="red" points="242,-90 188,-90 188,-54 242,-54 242,-90"/>
<text xml:space="preserve" text-anchor="middle" x="215" y="-68.88" font-family="monaco" font-size="10.00">mpi</text>
</g>
<!-- mpileaks -->
<g id="node2" class="node">
<title>mpileaks</title>
<polygon fill="none" stroke="black" points="61,-67 0,-67 0,-31 61,-31 61,-67"/>
<text xml:space="preserve" text-anchor="middle" x="30.5" y="-45.88" font-family="monaco" font-size="10.00">mpileaks</text>
</g>
<!-- mpileaks&#45;&gt;mpi -->
<g id="edge1" class="edge">
<title>mpileaks&#45;&gt;mpi</title>
<path fill="none" stroke="black" d="M61.23,-52.75C92.58,-56.7 142.07,-62.93 176.18,-67.23"/>
<polygon fill="black" stroke="black" points="175.69,-70.7 186.05,-68.48 176.56,-63.75 175.69,-70.7"/>
</g>
<!-- callpath -->
<g id="node3" class="node">
<title>callpath</title>
<polygon fill="none" stroke="black" points="152,-44 97,-44 97,-8 152,-8 152,-44"/>
<text xml:space="preserve" text-anchor="middle" x="124.5" y="-22.88" font-family="monaco" font-size="10.00">callpath</text>
</g>
<!-- mpileaks&#45;&gt;callpath -->
<g id="edge2" class="edge">
<title>mpileaks&#45;&gt;callpath</title>
<path fill="none" stroke="black" d="M61.37,-41.53C69.07,-39.61 77.47,-37.51 85.52,-35.49"/>
<polygon fill="black" stroke="black" points="86.26,-38.92 95.11,-33.1 84.56,-32.13 86.26,-38.92"/>
</g>
<!-- callpath&#45;&gt;mpi -->
<g id="edge3" class="edge">
<title>callpath&#45;&gt;mpi</title>
<path fill="none" stroke="black" d="M152.05,-39.8C160.09,-43.98 169.06,-48.64 177.62,-53.09"/>
<polygon fill="black" stroke="black" points="175.94,-56.16 186.43,-57.67 179.17,-49.95 175.94,-56.16"/>
</g>
<!-- dyninst -->
<g id="node4" class="node">
<title>dyninst</title>
<polygon fill="none" stroke="black" points="242,-36 188,-36 188,0 242,0 242,-36"/>
<text xml:space="preserve" text-anchor="middle" x="215" y="-14.88" font-family="monaco" font-size="10.00">dyninst</text>
</g>
<!-- callpath&#45;&gt;dyninst -->
<g id="edge4" class="edge">
<title>callpath&#45;&gt;dyninst</title>
<path fill="none" stroke="black" d="M152.05,-23.6C159.74,-22.91 168.27,-22.13 176.49,-21.39"/>
<polygon fill="black" stroke="black" points="176.62,-24.89 186.26,-20.51 175.99,-17.92 176.62,-24.89"/>
</g>
<!-- libdwarf -->
<g id="node5" class="node">
<title>libdwarf</title>
<polygon fill="none" stroke="black" points="333.75,-59 278,-59 278,-23 333.75,-23 333.75,-59"/>
<text xml:space="preserve" text-anchor="middle" x="305.88" y="-37.88" font-family="monaco" font-size="10.00">libdwarf</text>
</g>
<!-- dyninst&#45;&gt;libdwarf -->
<g id="edge5" class="edge">
<title>dyninst&#45;&gt;libdwarf</title>
<path fill="none" stroke="black" d="M242.18,-24.78C249.86,-26.76 258.41,-28.98 266.67,-31.11"/>
<polygon fill="black" stroke="black" points="265.62,-34.46 276.18,-33.57 267.37,-27.68 265.62,-34.46"/>
</g>
<!-- libelf -->
<g id="node6" class="node">
<title>libelf</title>
<polygon fill="none" stroke="black" points="423.75,-36 369.75,-36 369.75,0 423.75,0 423.75,-36"/>
<text xml:space="preserve" text-anchor="middle" x="396.75" y="-14.88" font-family="monaco" font-size="10.00">libelf</text>
</g>
<!-- dyninst&#45;&gt;libelf -->
<g id="edge7" class="edge">
<title>dyninst&#45;&gt;libelf</title>
<path fill="none" stroke="black" d="M242.23,-15.93C253.26,-15.16 266.25,-14.38 278,-14 302.76,-13.2 308.99,-13.2 333.75,-14 341.65,-14.25 350.1,-14.69 358.14,-15.18"/>
<polygon fill="black" stroke="black" points="357.8,-18.67 368.01,-15.83 358.26,-11.68 357.8,-18.67"/>
</g>
<!-- libdwarf&#45;&gt;libelf -->
<g id="edge6" class="edge">
<title>libdwarf&#45;&gt;libelf</title>
<path fill="none" stroke="black" d="M334.02,-33.97C341.74,-31.98 350.29,-29.76 358.5,-27.64"/>
<polygon fill="black" stroke="black" points="359.11,-31.1 367.91,-25.2 357.35,-24.32 359.11,-31.1"/>
</g>
</g>
</svg>
